{
	"asset":{
		"generator":"Khronos glTF Blender I/O v4.1.63",
		"version":"2.0"
	},
	"extensionsUsed":[
		"KHR_materials_specular"
	],
	"scene":0,
	"scenes":[
		{
			"name":"Scene",
			"nodes":[
				0
			]
		}
	],
	"nodes":[
		{
			"mesh":0,
			"name":"female_01_a"
		}
	],
	"materials":[
		{
			"doubleSided":true,
			"extensions":{
				"KHR_materials_specular":{
					"specularFactor":0
				}
			},
			"name":"palette",
			"pbrMetallicRoughness":{
				"baseColorTexture":{
					"index":0
				},
				"metallicFactor":0
			}
		}
	],
	"meshes":[
		{
			"name":"female_01_a",
			"primitives":[
				{
					"attributes":{
						"POSITION":0,
						"NORMAL":1,
						"TEXCOORD_0":2
					},
					"indices":3,
					"material":0
				}
			]
		}
	],
	"textures":[
		{
			"sampler":0,
			"source":0
		}
	],
	"images":[
		{
			"mimeType":"image/png",
			"name":"palette_32",
			"uri":"palette_32.png"
		}
	],
	"accessors":[
		{
			"bufferView":0,
			"componentType":5126,
			"count":1906,
			"max":[
				0.6186932921409607,
				1.6200810670852661,
				0.15447969734668732
			],
			"min":[
				-0.6186932921409607,
				-0.002533555030822754,
				-0.20127101242542267
			],
			"type":"VEC3"
		},
		{
			"bufferView":1,
			"componentType":5126,
			"count":1906,
			"type":"VEC3"
		},
		{
			"bufferView":2,
			"componentType":5126,
			"count":1906,
			"type":"VEC2"
		},
		{
			"bufferView":3,
			"componentType":5123,
			"count":2868,
			"type":"SCALAR"
		}
	],
	"bufferViews":[
		{
			"buffer":0,
			"byteLength":22872,
			"byteOffset":0,
			"target":34962
		},
		{
			"buffer":0,
			"byteLength":22872,
			"byteOffset":22872,
			"target":34962
		},
		{
			"buffer":0,
			"byteLength":15248,
			"byteOffset":45744,
			"target":34962
		},
		{
			"buffer":0,
			"byteLength":5736,
			"byteOffset":60992,
			"target":34963
		}
	],
	"samplers":[
		{
			"magFilter":9729,
			"minFilter":9987
		}
	],
	"buffers":[
		{
			"byteLength":66728,
			"uri":"female_01_a.bin"
		}
	]
}
