{
	"asset":{
		"generator":"Khronos glTF Blender I/O v4.1.63",
		"version":"2.0"
	},
	"extensionsUsed":[
		"KHR_materials_specular"
	],
	"scene":0,
	"scenes":[
		{
			"name":"Scene",
			"nodes":[
				0
			]
		}
	],
	"nodes":[
		{
			"mesh":0,
			"name":"female_03_b"
		}
	],
	"materials":[
		{
			"doubleSided":true,
			"extensions":{
				"KHR_materials_specular":{
					"specularFactor":0
				}
			},
			"name":"palette",
			"pbrMetallicRoughness":{
				"baseColorTexture":{
					"index":0
				},
				"metallicFactor":0
			}
		}
	],
	"meshes":[
		{
			"name":"female_03_b",
			"primitives":[
				{
					"attributes":{
						"POSITION":0,
						"NORMAL":1,
						"TEXCOORD_0":2
					},
					"indices":3,
					"material":0
				}
			]
		}
	],
	"textures":[
		{
			"sampler":0,
			"source":0
		}
	],
	"images":[
		{
			"mimeType":"image/png",
			"name":"palette_32",
			"uri":"palette_32.png"
		}
	],
	"accessors":[
		{
			"bufferView":0,
			"componentType":5126,
			"count":1911,
			"max":[
				0.5537375807762146,
				1.5386476516723633,
				0.17848290503025055
			],
			"min":[
				-0.5537375807762146,
				-0.00014674663543701172,
				-0.1273818165063858
			],
			"type":"VEC3"
		},
		{
			"bufferView":1,
			"componentType":5126,
			"count":1911,
			"type":"VEC3"
		},
		{
			"bufferView":2,
			"componentType":5126,
			"count":1911,
			"type":"VEC2"
		},
		{
			"bufferView":3,
			"componentType":5123,
			"count":2871,
			"type":"SCALAR"
		}
	],
	"bufferViews":[
		{
			"buffer":0,
			"byteLength":22932,
			"byteOffset":0,
			"target":34962
		},
		{
			"buffer":0,
			"byteLength":22932,
			"byteOffset":22932,
			"target":34962
		},
		{
			"buffer":0,
			"byteLength":15288,
			"byteOffset":45864,
			"target":34962
		},
		{
			"buffer":0,
			"byteLength":5742,
			"byteOffset":61152,
			"target":34963
		}
	],
	"samplers":[
		{
			"magFilter":9729,
			"minFilter":9987
		}
	],
	"buffers":[
		{
			"byteLength":66896,
			"uri":"female_03_b.bin"
		}
	]
}
