{
	"asset":{
		"generator":"Khronos glTF Blender I/O v4.1.63",
		"version":"2.0"
	},
	"extensionsUsed":[
		"KHR_materials_specular"
	],
	"scene":0,
	"scenes":[
		{
			"name":"Scene",
			"nodes":[
				0
			]
		}
	],
	"nodes":[
		{
			"mesh":0,
			"name":"female_02_a",
			"scale":[
				0.18176841735839844,
				0.300584614276886,
				0.18176841735839844
			]
		}
	],
	"materials":[
		{
			"doubleSided":true,
			"extensions":{
				"KHR_materials_specular":{
					"specularFactor":0
				}
			},
			"name":"palette",
			"pbrMetallicRoughness":{
				"baseColorTexture":{
					"index":0
				},
				"metallicFactor":0
			}
		}
	],
	"meshes":[
		{
			"name":"female_02_a",
			"primitives":[
				{
					"attributes":{
						"POSITION":0,
						"NORMAL":1,
						"TEXCOORD_0":2
					},
					"indices":3,
					"material":0
				}
			]
		}
	],
	"textures":[
		{
			"sampler":0,
			"source":0
		}
	],
	"images":[
		{
			"mimeType":"image/png",
			"name":"palette_32",
			"uri":"palette_32.png"
		}
	],
	"accessors":[
		{
			"bufferView":0,
			"componentType":5126,
			"count":2388,
			"max":[
				3.4077844619750977,
				5.727466583251953,
				1.1484392881393433
			],
			"min":[
				-3.4077844619750977,
				0.020206451416015625,
				-0.946308970451355
			],
			"type":"VEC3"
		},
		{
			"bufferView":1,
			"componentType":5126,
			"count":2388,
			"type":"VEC3"
		},
		{
			"bufferView":2,
			"componentType":5126,
			"count":2388,
			"type":"VEC2"
		},
		{
			"bufferView":3,
			"componentType":5123,
			"count":3600,
			"type":"SCALAR"
		}
	],
	"bufferViews":[
		{
			"buffer":0,
			"byteLength":28656,
			"byteOffset":0,
			"target":34962
		},
		{
			"buffer":0,
			"byteLength":28656,
			"byteOffset":28656,
			"target":34962
		},
		{
			"buffer":0,
			"byteLength":19104,
			"byteOffset":57312,
			"target":34962
		},
		{
			"buffer":0,
			"byteLength":7200,
			"byteOffset":76416,
			"target":34963
		}
	],
	"samplers":[
		{
			"magFilter":9729,
			"minFilter":9987
		}
	],
	"buffers":[
		{
			"byteLength":83616,
			"uri":"female_02_a.bin"
		}
	]
}
