{
	"asset":{
		"generator":"Khronos glTF Blender I/O v4.1.63",
		"version":"2.0"
	},
	"extensionsUsed":[
		"KHR_materials_specular"
	],
	"scene":0,
	"scenes":[
		{
			"name":"Scene",
			"nodes":[
				0
			]
		}
	],
	"nodes":[
		{
			"mesh":0,
			"name":"female_02_b"
		}
	],
	"materials":[
		{
			"doubleSided":true,
			"extensions":{
				"KHR_materials_specular":{
					"specularFactor":0
				}
			},
			"name":"palette",
			"pbrMetallicRoughness":{
				"baseColorTexture":{
					"index":0
				},
				"metallicFactor":0
			}
		}
	],
	"meshes":[
		{
			"name":"female_02_b",
			"primitives":[
				{
					"attributes":{
						"POSITION":0,
						"NORMAL":1,
						"TEXCOORD_0":2
					},
					"indices":3,
					"material":0
				}
			]
		}
	],
	"textures":[
		{
			"sampler":0,
			"source":0
		}
	],
	"images":[
		{
			"mimeType":"image/png",
			"name":"palette_32",
			"uri":"palette_32.png"
		}
	],
	"accessors":[
		{
			"bufferView":0,
			"componentType":5126,
			"count":2046,
			"max":[
				0.6194274425506592,
				1.783705234527588,
				0.20062004029750824
			],
			"min":[
				-0.6194274425506592,
				-0.010214090347290039,
				-0.21432824432849884
			],
			"type":"VEC3"
		},
		{
			"bufferView":1,
			"componentType":5126,
			"count":2046,
			"type":"VEC3"
		},
		{
			"bufferView":2,
			"componentType":5126,
			"count":2046,
			"type":"VEC2"
		},
		{
			"bufferView":3,
			"componentType":5123,
			"count":3078,
			"type":"SCALAR"
		}
	],
	"bufferViews":[
		{
			"buffer":0,
			"byteLength":24552,
			"byteOffset":0,
			"target":34962
		},
		{
			"buffer":0,
			"byteLength":24552,
			"byteOffset":24552,
			"target":34962
		},
		{
			"buffer":0,
			"byteLength":16368,
			"byteOffset":49104,
			"target":34962
		},
		{
			"buffer":0,
			"byteLength":6156,
			"byteOffset":65472,
			"target":34963
		}
	],
	"samplers":[
		{
			"magFilter":9729,
			"minFilter":9987
		}
	],
	"buffers":[
		{
			"byteLength":71628,
			"uri":"female_02_b.bin"
		}
	]
}
