{
	"asset":{
		"generator":"Khronos glTF Blender I/O v4.1.63",
		"version":"2.0"
	},
	"extensionsUsed":[
		"KHR_materials_specular"
	],
	"scene":0,
	"scenes":[
		{
			"name":"Scene",
			"nodes":[
				0
			]
		}
	],
	"nodes":[
		{
			"mesh":0,
			"name":"male_02_a"
		}
	],
	"materials":[
		{
			"doubleSided":true,
			"extensions":{
				"KHR_materials_specular":{
					"specularFactor":0
				}
			},
			"name":"palette",
			"pbrMetallicRoughness":{
				"baseColorTexture":{
					"index":0
				},
				"metallicFactor":0
			}
		}
	],
	"meshes":[
		{
			"name":"male_02_a",
			"primitives":[
				{
					"attributes":{
						"POSITION":0,
						"NORMAL":1,
						"TEXCOORD_0":2
					},
					"indices":3,
					"material":0
				}
			]
		}
	],
	"textures":[
		{
			"sampler":0,
			"source":0
		}
	],
	"images":[
		{
			"mimeType":"image/png",
			"name":"palette_32",
			"uri":"palette_32.png"
		}
	],
	"accessors":[
		{
			"bufferView":0,
			"componentType":5126,
			"count":2730,
			"max":[
				0.6355687975883484,
				1.8795374631881714,
				0.15893571078777313
			],
			"min":[
				-0.6355687975883484,
				0.0006208345293998718,
				-0.18082354962825775
			],
			"type":"VEC3"
		},
		{
			"bufferView":1,
			"componentType":5126,
			"count":2730,
			"type":"VEC3"
		},
		{
			"bufferView":2,
			"componentType":5126,
			"count":2730,
			"type":"VEC2"
		},
		{
			"bufferView":3,
			"componentType":5123,
			"count":4152,
			"type":"SCALAR"
		}
	],
	"bufferViews":[
		{
			"buffer":0,
			"byteLength":32760,
			"byteOffset":0,
			"target":34962
		},
		{
			"buffer":0,
			"byteLength":32760,
			"byteOffset":32760,
			"target":34962
		},
		{
			"buffer":0,
			"byteLength":21840,
			"byteOffset":65520,
			"target":34962
		},
		{
			"buffer":0,
			"byteLength":8304,
			"byteOffset":87360,
			"target":34963
		}
	],
	"samplers":[
		{
			"magFilter":9729,
			"minFilter":9987
		}
	],
	"buffers":[
		{
			"byteLength":95664,
			"uri":"male_02_a.bin"
		}
	]
}
