{
	"asset":{
		"generator":"Khronos glTF Blender I/O v4.1.63",
		"version":"2.0"
	},
	"extensionsUsed":[
		"KHR_materials_specular",
		"KHR_materials_ior"
	],
	"scene":0,
	"scenes":[
		{
			"name":"Scene",
			"nodes":[
				0
			]
		}
	],
	"nodes":[
		{
			"mesh":0,
			"name":"male_03_a"
		}
	],
	"materials":[
		{
			"doubleSided":true,
			"extensions":{
				"KHR_materials_specular":{
					"specularFactor":0
				},
				"KHR_materials_ior":{
					"ior":1.4500000476837158
				}
			},
			"name":"palette",
			"pbrMetallicRoughness":{
				"baseColorTexture":{
					"index":0
				},
				"metallicFactor":0
			}
		}
	],
	"meshes":[
		{
			"name":"male_03_a",
			"primitives":[
				{
					"attributes":{
						"POSITION":0,
						"NORMAL":1,
						"TEXCOORD_0":2
					},
					"indices":3,
					"material":0
				}
			]
		}
	],
	"textures":[
		{
			"sampler":0,
			"source":0
		}
	],
	"images":[
		{
			"mimeType":"image/png",
			"name":"palette_32",
			"uri":"palette_32.png"
		}
	],
	"accessors":[
		{
			"bufferView":0,
			"componentType":5126,
			"count":2228,
			"max":[
				0.6568850874900818,
				1.866029143333435,
				0.242308109998703
			],
			"min":[
				-0.6568850874900818,
				0.0002942231949418783,
				-0.24771693348884583
			],
			"type":"VEC3"
		},
		{
			"bufferView":1,
			"componentType":5126,
			"count":2228,
			"type":"VEC3"
		},
		{
			"bufferView":2,
			"componentType":5126,
			"count":2228,
			"type":"VEC2"
		},
		{
			"bufferView":3,
			"componentType":5123,
			"count":3384,
			"type":"SCALAR"
		}
	],
	"bufferViews":[
		{
			"buffer":0,
			"byteLength":26736,
			"byteOffset":0,
			"target":34962
		},
		{
			"buffer":0,
			"byteLength":26736,
			"byteOffset":26736,
			"target":34962
		},
		{
			"buffer":0,
			"byteLength":17824,
			"byteOffset":53472,
			"target":34962
		},
		{
			"buffer":0,
			"byteLength":6768,
			"byteOffset":71296,
			"target":34963
		}
	],
	"samplers":[
		{
			"magFilter":9729,
			"minFilter":9987
		}
	],
	"buffers":[
		{
			"byteLength":78064,
			"uri":"male_03_a.bin"
		}
	]
}
