{
	"asset":{
		"generator":"Khronos glTF Blender I/O v4.1.63",
		"version":"2.0"
	},
	"extensionsUsed":[
		"KHR_materials_specular"
	],
	"scene":0,
	"scenes":[
		{
			"name":"Scene",
			"nodes":[
				0
			]
		}
	],
	"nodes":[
		{
			"mesh":0,
			"name":"male_02_b"
		}
	],
	"materials":[
		{
			"doubleSided":true,
			"extensions":{
				"KHR_materials_specular":{
					"specularFactor":0
				}
			},
			"name":"palette",
			"pbrMetallicRoughness":{
				"baseColorTexture":{
					"index":0
				},
				"metallicFactor":0
			}
		}
	],
	"meshes":[
		{
			"name":"male_02_b",
			"primitives":[
				{
					"attributes":{
						"POSITION":0,
						"NORMAL":1,
						"TEXCOORD_0":2
					},
					"indices":3,
					"material":0
				}
			]
		}
	],
	"textures":[
		{
			"sampler":0,
			"source":0
		}
	],
	"images":[
		{
			"mimeType":"image/png",
			"name":"palette_32",
			"uri":"palette_32.png"
		}
	],
	"accessors":[
		{
			"bufferView":0,
			"componentType":5126,
			"count":1982,
			"max":[
				0.6355687975883484,
				1.857580304145813,
				0.14110349118709564
			],
			"min":[
				-0.6355687975883484,
				0.0014271102845668793,
				-0.16087768971920013
			],
			"type":"VEC3"
		},
		{
			"bufferView":1,
			"componentType":5126,
			"count":1982,
			"type":"VEC3"
		},
		{
			"bufferView":2,
			"componentType":5126,
			"count":1982,
			"type":"VEC2"
		},
		{
			"bufferView":3,
			"componentType":5123,
			"count":3006,
			"type":"SCALAR"
		}
	],
	"bufferViews":[
		{
			"buffer":0,
			"byteLength":23784,
			"byteOffset":0,
			"target":34962
		},
		{
			"buffer":0,
			"byteLength":23784,
			"byteOffset":23784,
			"target":34962
		},
		{
			"buffer":0,
			"byteLength":15856,
			"byteOffset":47568,
			"target":34962
		},
		{
			"buffer":0,
			"byteLength":6012,
			"byteOffset":63424,
			"target":34963
		}
	],
	"samplers":[
		{
			"magFilter":9729,
			"minFilter":9987
		}
	],
	"buffers":[
		{
			"byteLength":69436,
			"uri":"male_02_b.bin"
		}
	]
}
