{
	"asset":{
		"generator":"Khronos glTF Blender I/O v4.1.63",
		"version":"2.0"
	},
	"extensionsUsed":[
		"KHR_materials_specular"
	],
	"scene":0,
	"scenes":[
		{
			"name":"Scene",
			"nodes":[
				0
			]
		}
	],
	"nodes":[
		{
			"mesh":0,
			"name":"male_01_b"
		}
	],
	"materials":[
		{
			"doubleSided":true,
			"extensions":{
				"KHR_materials_specular":{
					"specularFactor":0
				}
			},
			"name":"palette",
			"pbrMetallicRoughness":{
				"baseColorTexture":{
					"index":0
				},
				"metallicFactor":0
			}
		}
	],
	"meshes":[
		{
			"name":"male_01_b",
			"primitives":[
				{
					"attributes":{
						"POSITION":0,
						"NORMAL":1,
						"TEXCOORD_0":2
					},
					"indices":3,
					"material":0
				}
			]
		}
	],
	"textures":[
		{
			"sampler":0,
			"source":0
		}
	],
	"images":[
		{
			"mimeType":"image/png",
			"name":"palette_32",
			"uri":"palette_32.png"
		}
	],
	"accessors":[
		{
			"bufferView":0,
			"componentType":5126,
			"count":3032,
			"max":[
				0.7289124131202698,
				1.8940558433532715,
				0.15544995665550232
			],
			"min":[
				-0.7289124131202698,
				0.00814056396484375,
				-0.17687690258026123
			],
			"type":"VEC3"
		},
		{
			"bufferView":1,
			"componentType":5126,
			"count":3032,
			"type":"VEC3"
		},
		{
			"bufferView":2,
			"componentType":5126,
			"count":3032,
			"type":"VEC2"
		},
		{
			"bufferView":3,
			"componentType":5123,
			"count":4584,
			"type":"SCALAR"
		}
	],
	"bufferViews":[
		{
			"buffer":0,
			"byteLength":36384,
			"byteOffset":0,
			"target":34962
		},
		{
			"buffer":0,
			"byteLength":36384,
			"byteOffset":36384,
			"target":34962
		},
		{
			"buffer":0,
			"byteLength":24256,
			"byteOffset":72768,
			"target":34962
		},
		{
			"buffer":0,
			"byteLength":9168,
			"byteOffset":97024,
			"target":34963
		}
	],
	"samplers":[
		{
			"magFilter":9729,
			"minFilter":9987
		}
	],
	"buffers":[
		{
			"byteLength":106192,
			"uri":"male_01_b.bin"
		}
	]
}
