{
	"asset":{
		"generator":"Khronos glTF Blender I/O v4.1.63",
		"version":"2.0"
	},
	"extensionsUsed":[
		"KHR_materials_specular",
		"KHR_materials_ior"
	],
	"scene":0,
	"scenes":[
		{
			"name":"Scene",
			"nodes":[
				0
			]
		}
	],
	"nodes":[
		{
			"mesh":0,
			"name":"male_03_b"
		}
	],
	"materials":[
		{
			"doubleSided":true,
			"extensions":{
				"KHR_materials_specular":{
					"specularFactor":0
				},
				"KHR_materials_ior":{
					"ior":1.4500000476837158
				}
			},
			"name":"palette",
			"pbrMetallicRoughness":{
				"baseColorTexture":{
					"index":0
				},
				"metallicFactor":0
			}
		}
	],
	"meshes":[
		{
			"name":"male_03_b",
			"primitives":[
				{
					"attributes":{
						"POSITION":0,
						"NORMAL":1,
						"TEXCOORD_0":2
					},
					"indices":3,
					"material":0
				}
			]
		}
	],
	"textures":[
		{
			"sampler":0,
			"source":0
		}
	],
	"images":[
		{
			"mimeType":"image/png",
			"name":"palette_32",
			"uri":"palette_32.png"
		}
	],
	"accessors":[
		{
			"bufferView":0,
			"componentType":5126,
			"count":2678,
			"max":[
				0.6568850874900818,
				1.8803743124008179,
				0.242308109998703
			],
			"min":[
				-0.6568850874900818,
				9.149312973022461e-06,
				-0.29206299781799316
			],
			"type":"VEC3"
		},
		{
			"bufferView":1,
			"componentType":5126,
			"count":2678,
			"type":"VEC3"
		},
		{
			"bufferView":2,
			"componentType":5126,
			"count":2678,
			"type":"VEC2"
		},
		{
			"bufferView":3,
			"componentType":5123,
			"count":3966,
			"type":"SCALAR"
		}
	],
	"bufferViews":[
		{
			"buffer":0,
			"byteLength":32136,
			"byteOffset":0,
			"target":34962
		},
		{
			"buffer":0,
			"byteLength":32136,
			"byteOffset":32136,
			"target":34962
		},
		{
			"buffer":0,
			"byteLength":21424,
			"byteOffset":64272,
			"target":34962
		},
		{
			"buffer":0,
			"byteLength":7932,
			"byteOffset":85696,
			"target":34963
		}
	],
	"samplers":[
		{
			"magFilter":9729,
			"minFilter":9987
		}
	],
	"buffers":[
		{
			"byteLength":93628,
			"uri":"male_03_b.bin"
		}
	]
}
